<svg xmlns="http://www.w3.org/2000/svg" width="24" height="26"><path d="M3.951.693A2.956 2.956 0 0 0 1 3.644a2.955 2.955 0 0 0 2.951 2.951 2.954 2.954 0 0 0 2.951-2.95A2.955 2.955 0 0 0 3.952.693zM9.05 3.644c0 .811.364 1.536.88 2.063.05.052.12.083.193.084v7.243s-.002.51-.126 1.007c-.062.248-.16.482-.276.637-.117.155-.224.235-.403.235-.564 0-.892-.334-1.408-.747-.517-.413-1.208-.863-2.348-.863-.582 0-1.402-.004-2.113.176-.355.09-.688.221-.947.453-.26.231-.428.577-.428.98 0 .269.015.654.336 1.015.32.36.895.705 1.987 1.115 1.3.487 2.234 4.098 3.328 5.656.547.778 1.14 1.54 1.87 2.112.73.573 1.605.956 2.674.956h5.911c1.35-.063 2.564-.267 3.446-1.056.883-.79 1.375-2.124 1.375-4.31v-6.56a1.881 1.881 0 0 0-1.878-1.879c-.354 0-.645.152-.813.21-.013-.553-.178-.977-.478-1.224-.311-.257-.717-.312-1.107-.294-.65.032-1.274.256-1.702.411-.172-.86-.894-1.517-1.802-1.517-.61 0-1.02.314-1.342.645V5.791a.274.274 0 0 0 .193-.084c.516-.527.88-1.251.88-2.063C14.951 2.018 13.627.693 12 .693S9.049 2.018 9.049 3.644zm11-2.951a2.955 2.955 0 0 0-2.951 2.951 2.954 2.954 0 0 0 2.95 2.951 2.955 2.955 0 0 0 2.952-2.95A2.957 2.957 0 0 0 20.049.693zm-16.1.537c1.336 0 2.415 1.078 2.415 2.414S5.287 6.059 3.95 6.059 1.537 4.98 1.537 3.643 2.615 1.23 3.95 1.23zm8.049 0a2.411 2.411 0 0 1 2.415 2.414c0 .55-.21 1.065-.537 1.476V4.717a.27.27 0 0 0-.008-.058.306.306 0 0 0-.017-.059c-.064-.979-.858-1.76-1.853-1.76h-.05a.266.266 0 0 0-.05.016h-.009a1.873 1.873 0 0 0-1.769 1.861v.403a2.386 2.386 0 0 1-.537-1.476A2.413 2.413 0 0 1 12 1.23zm8.049 0c1.336 0 2.414 1.078 2.414 2.414s-1.078 2.415-2.414 2.415-2.415-1.079-2.415-2.415 1.08-2.414 2.417-2.414zM13.34 4.692v6.196a.269.269 0 0 0 .478.168c.305-.38.753-.973 1.4-.973.749 0 1.342.593 1.342 1.342a.266.266 0 0 0 .112.214c.07.05.16.063.24.037.428-.142 1.216-.456 1.845-.486.314-.015.562.039.73.176.166.137.293.377.293.864 0 .089.005.172.041.26a.42.42 0 0 0 .21.209c.183.079.319.022.436-.017.235-.078.475-.184.654-.184.748 0 1.341.593 1.341 1.341V18.4c0 2.107-.458 5.252-1.19 5.907-.732.654-1.796.86-3.102.922h-5.903c-.943 0-1.689-.33-2.347-.846-.658-.517-1.216-1.232-1.752-1.996-1.073-1.527-2.017-5.259-3.589-5.848-1.054-.395-1.553-.73-1.769-.973-.216-.243-.201-.385-.201-.654 0-.267.088-.433.251-.578.164-.146.416-.258.721-.336.61-.155 1.397-.159 1.98-.159 1.005 0 1.522.354 2.011.746.49.392.967.864 1.744.864.358 0 .653-.197.839-.444.185-.248.288-.55.36-.839.145-.577.143-1.132.143-1.132V4.717c0-.748.593-1.341 1.341-1.341.739 0 1.328.58 1.341 1.316z" fill="#191717" stroke="#191717" stroke-width=".4"/></svg>