<svg xmlns="http://www.w3.org/2000/svg" width="29" height="29"><g fill="#191717" stroke="#191717" stroke-width=".2"><path d="M14.516 12.934a.315.315 0 0 1-.178-.056 4.212 4.212 0 0 1-1.075-1.067 3.21 3.21 0 0 1-.58-1.792 3.16 3.16 0 0 1 .534-1.764c.264-.405.636-.78 1.103-1.114a.313.313 0 0 1 .359-.003 4.16 4.16 0 0 1 1.071 1.083c.368.543.565 1.157.568 1.774a3.209 3.209 0 0 1-.57 1.818 4.24 4.24 0 0 1-1.05 1.06.295.295 0 0 1-.182.06zm-.015-5.152a3.52 3.52 0 0 0-.763.813 2.55 2.55 0 0 0-.434 1.42c.003.508.162.994.471 1.445.194.283.443.543.739.775.288-.23.53-.488.72-.768.31-.46.467-.952.463-1.465a2.544 2.544 0 0 0-.461-1.43 3.533 3.533 0 0 0-.735-.79zM17.9 5.764a.313.313 0 0 1-.09-.014 12.146 12.146 0 0 0-3.559-.53c-1.212 0-2.408.178-3.558.531a.315.315 0 0 1-.256-.033.314.314 0 0 1-.142-.216A4.011 4.011 0 0 1 14.251.869a4.01 4.01 0 0 1 3.956 4.632.303.303 0 0 1-.141.215.296.296 0 0 1-.165.047zm-3.648-1.166c1.147 0 2.281.153 3.379.453.002-.06.005-.118.005-.176a3.39 3.39 0 0 0-3.385-3.385 3.39 3.39 0 0 0-3.379 3.561c1.097-.3 2.232-.453 3.38-.453z"/><path d="M20.8 28.213H7.703a.305.305 0 0 1-.164-.048 12.827 12.827 0 0 1-4.37-4.541 12.74 12.74 0 0 1-1.657-6.287c0-2.781.88-5.424 2.545-7.641a12.842 12.842 0 0 1 6.453-4.54c1.21-.371 2.468-.559 3.742-.559s2.531.188 3.74.56a12.857 12.857 0 0 1 6.454 4.539 12.629 12.629 0 0 1 2.545 7.641c0 2.206-.573 4.38-1.656 6.287a12.828 12.828 0 0 1-4.37 4.541.31.31 0 0 1-.164.048zM7.792 27.59h12.92a12.057 12.057 0 0 0 5.657-10.254c0-5.36-3.44-10.016-8.56-11.586a12.103 12.103 0 0 0-3.558-.532c-1.212 0-2.409.179-3.558.532-5.12 1.57-8.56 6.227-8.56 11.586 0 4.191 2.113 8.017 5.659 10.254z"/><path d="M24.443 24.484H3.935a.31.31 0 0 1 0-.621h20.508a.31.31 0 1 1 0 .621zm2.486 3.729a1.556 1.556 0 0 1-1.554-1.554c0-.856.697-1.554 1.554-1.554.856 0 1.553.698 1.553 1.554 0 .856-.697 1.554-1.553 1.554zm0-2.486a.932.932 0 1 0 0 1.863.932.932 0 0 0 0-1.863zM24.443 3.355a1.556 1.556 0 0 1-1.553-1.554c0-.856.697-1.554 1.553-1.554.857 0 1.554.698 1.554 1.554 0 .856-.697 1.554-1.554 1.554zm0-2.486a.932.932 0 1 0 0 1.865.932.932 0 0 0 0-1.865zM1.76 7.705c-.685 0-1.243-.558-1.243-1.243s.558-1.243 1.243-1.243 1.243.558 1.243 1.243-.558 1.243-1.243 1.243zm0-1.865a.622.622 0 1 0 .002 1.244.622.622 0 0 0-.002-1.244z"/><path d="M14.5 24.484a.31.31 0 0 1-.31-.31l.015-11.551a.31.31 0 0 1 .621 0l-.015 11.55c0 .172-.14.311-.311.311z"/><path d="M16.372 24.484a6.173 6.173 0 0 1-1.97-.338.311.311 0 0 1-.211-.29 6.09 6.09 0 0 1 .34-2.154c.322-.893.874-1.643 1.594-2.168.714-.521 1.552-.807 2.49-.85a6.029 6.029 0 0 1 2.216.333.31.31 0 0 1 .212.29 6.11 6.11 0 0 1-.35 2.18c-.329.894-.862 1.615-1.586 2.142-.728.53-1.622.827-2.585.854l-.15.001zm-1.56-.86a5.35 5.35 0 0 0 1.694.236c.848-.025 1.6-.27 2.236-.734.622-.454 1.081-1.077 1.367-1.854.195-.53.3-1.113.312-1.735a5.336 5.336 0 0 0-1.777-.233c-.814.037-1.539.283-2.154.732-.629.457-1.091 1.09-1.376 1.877-.188.524-.29 1.1-.302 1.711z"/><path d="M14.5 23.862a.31.31 0 0 1-.173-.568l3.729-2.487a.31.31 0 0 1 .346.517l-3.73 2.486a.31.31 0 0 1-.172.052z"/><path d="M12.648 24.484l-.153-.002c-.962-.028-1.855-.324-2.585-.854-.723-.527-1.256-1.247-1.583-2.142a6.045 6.045 0 0 1-.35-2.181.311.311 0 0 1 .21-.29 6.077 6.077 0 0 1 2.216-.333c.939.044 1.777.33 2.491.85.721.525 1.272 1.276 1.594 2.17a6.07 6.07 0 0 1 .34 2.153.31.31 0 0 1-.211.29 6.146 6.146 0 0 1-1.969.339zm-4.05-4.947c.012.623.118 1.206.312 1.735.284.776.744 1.4 1.367 1.854.636.463 1.388.71 2.236.734a5.43 5.43 0 0 0 1.694-.236 5.374 5.374 0 0 0-.303-1.712c-.284-.788-.747-1.419-1.376-1.876-.614-.448-1.339-.694-2.154-.732a5.363 5.363 0 0 0-1.776.233zm7.171-1.48c-.446 0-.906-.08-1.369-.235a.31.31 0 0 1-.21-.29 4.187 4.187 0 0 1 .237-1.496 3.202 3.202 0 0 1 1.116-1.518 3.153 3.153 0 0 1 1.743-.595c.5-.024 1.02.055 1.54.231a.31.31 0 0 1 .212.29 4.242 4.242 0 0 1-.244 1.515 3.202 3.202 0 0 1-1.11 1.499 3.21 3.21 0 0 1-1.808.598h-.107zm-.955-.757c.356.1.706.144 1.044.135.555-.016 1.046-.176 1.46-.48a2.54 2.54 0 0 0 .893-1.21c.12-.328.19-.686.204-1.068a3.507 3.507 0 0 0-1.097-.133 2.545 2.545 0 0 0-1.407.478 2.54 2.54 0 0 0-.898 1.225 3.43 3.43 0 0 0-.199 1.053z"/><path d="M13.262 18.057l-.103-.001a3.15 3.15 0 0 1-1.769-.585 3.126 3.126 0 0 1-1.085-1.465 4.143 4.143 0 0 1-.239-1.48.312.312 0 0 1 .212-.29 4.114 4.114 0 0 1 1.504-.225c.641.03 1.215.226 1.704.583.493.36.871.873 1.09 1.484.163.448.24.938.232 1.462a.31.31 0 0 1-.211.29 4.22 4.22 0 0 1-1.335.227zm-2.57-3.299c.015.37.082.716.197 1.033.182.493.473.89.868 1.177.403.293.881.45 1.42.466a3.44 3.44 0 0 0 1.01-.13 3.406 3.406 0 0 0-.193-1.017c-.18-.5-.475-.902-.872-1.192-.39-.283-.85-.44-1.368-.464-.344-.016-.7.028-1.062.127zm3.827 9.104a.314.314 0 0 1-.172-.052L10.6 21.324a.312.312 0 0 1 .344-.518l3.748 2.486a.313.313 0 0 1-.173.571zM8.447 3.706a.501.501 0 1 1 0-1.002.501.501 0 0 1 0 1.002zm0-.767a.267.267 0 0 0-.188.455c.1.1.277.1.377 0a.267.267 0 0 0-.189-.455zM27.578 9.92a.503.503 0 0 1-.354-.145.502.502 0 0 1 .708-.708.502.502 0 0 1 0 .708.503.503 0 0 1-.354.145zm0-.767a.267.267 0 0 0-.189.456c.1.1.278.1.377 0a.265.265 0 0 0 0-.377.262.262 0 0 0-.188-.079zM2.854 27.321a.494.494 0 0 1-.499-.5.496.496 0 0 1 .5-.5.502.502 0 0 1 .354.854.507.507 0 0 1-.355.146zm0-.767a.268.268 0 0 0-.189.456c.1.1.277.1.377 0a.271.271 0 0 0 .078-.189.267.267 0 0 0-.266-.267z"/></g></svg>