<svg xmlns="http://www.w3.org/2000/svg" width="29" height="31"><path d="M15.894 28.578a1.856 1.856 0 0 1-1.842.598 1.857 1.857 0 0 1-.993-.64.316.316 0 1 0-.495.394 2.47 2.47 0 0 0 1.931.935 2.47 2.47 0 0 0 1.886-.878.318.318 0 1 0-.487-.409zM14.5 6.929c-4.168 0-7.556 3.392-7.556 7.557 0 3.07 1.81 5.778 4.63 6.961v2.368h5.858v-2.364c2.777-1.17 4.63-3.943 4.63-6.968-.005-4.166-3.392-7.554-7.562-7.554zm2.295 14.092v2.16h-1.992v-5.51l2.297-2.298a.317.317 0 1 0-.45-.448l-2.165 2.166-2.065-2.064a.316.316 0 0 0-.449 0 .316.316 0 0 0 0 .448l2.2 2.199v5.507h-1.957v-2.164l-.204-.08a6.874 6.874 0 0 1-4.426-6.449c0-3.814 3.106-6.92 6.92-6.92 3.815 0 6.921 3.106 6.921 6.92a6.964 6.964 0 0 1-4.426 6.456l-.204.077zm.28 6.113h-5.187a.318.318 0 0 0 0 .636h5.187a.318.318 0 0 0 0-.636zm0-1.232h-5.187a.319.319 0 0 0-.318.318c0 .175.143.318.318.318h5.187a.319.319 0 0 0 .318-.318.319.319 0 0 0-.318-.318zm0-1.234h-5.187a.319.319 0 0 0-.318.318c0 .175.143.318.318.318h5.187a.319.319 0 0 0 .318-.318.319.319 0 0 0-.318-.318zM14.482 5.516a.319.319 0 0 0 .318-.318V.912a.319.319 0 0 0-.318-.318.319.319 0 0 0-.318.318v4.286c0 .175.143.318.318.318zm-6.73 2.943a.326.326 0 0 0 .452 0 .317.317 0 0 0 0-.449L5.172 4.978a.317.317 0 1 0-.45.448l3.03 3.033zM21.25 21.056a.317.317 0 1 0-.449.449l3.033 3.032a.326.326 0 0 0 .452 0 .316.316 0 0 0 0-.448l-3.036-3.033zm-.227-12.505a.329.329 0 0 0 .227-.092l3.032-3.033a.314.314 0 0 0 0-.448.314.314 0 0 0-.448 0L20.8 8.01a.319.319 0 0 0 0 .45c.06.06.143.091.222.091zM7.752 21.056l-3.033 3.033a.316.316 0 0 0 .226.54.329.329 0 0 0 .227-.092l3.032-3.032c.124-.125.124-.325 0-.449s-.328-.124-.452 0zm20.262-6.619h-4.29a.319.319 0 0 0 .001.637h4.285a.319.319 0 0 0 .004-.637zm-22.419.319a.318.318 0 0 0-.318-.319H.988a.319.319 0 0 0 0 .637h4.286c.178 0 .322-.14.322-.318z" fill="#191717" stroke="#191717" stroke-width=".3"/></svg>