<svg xmlns="http://www.w3.org/2000/svg" width="156" height="124"><g fill="none" fill-rule="evenodd"><path fill="#D8D8D8" d="M108.139 86.28C121.229 63.668 156 84.77 156 63.902s-21.237-37.785-47.435-37.785c-26.198 0-58.741-.064-47.435 37.785 11.306 37.85 33.918 44.99 47.009 22.378z" opacity=".3"/><path fill="#FFAF00" d="M35.998 77.76C26.165 94.95.045 78.906.045 94.772S15.999 123.5 35.678 123.5c19.68 0 44.126.048 35.633-28.727-8.493-28.776-25.479-34.205-35.313-17.014z"/><g fill="#1D1D1B" fill-rule="nonzero"><path d="M116.026 13.113c-.176-.014-.348-.009-.524-.017a.336.336 0 0 0-.203-.008c-7.446-.246-14.555 4.947-17.442 11.683-3.776 8.815.478 18.514 4.517 26.416.024.048.055.09.092.125.329 2.643.877 5.231 1.71 7.691.058.17.287.124.272-.055-.248-3.014-.53-5.983-.734-8.942 2.401-5.501 8.563-8.568 9.77-14.785 1.359-6.989-3.284-15.415 2.716-21.092a.487.487 0 0 0 .088-.628c.036-.162-.064-.371-.262-.388zm-7.88 2.695a22.62 22.62 0 0 1 5.103-1.702c-2.007 1.194-3.628 2.836-4.953 4.729a16.344 16.344 0 0 1-.173-1.748c-.017-.412.032-.852.023-1.28zm-4.482 2.89a19.603 19.603 0 0 1 3.69-2.501c.016.32.056.642.082.94.07.795.218 1.573.415 2.345-1.009 1.564-1.82 3.283-2.49 5.056-.696-1.908-1.183-3.842-1.684-5.814-.004-.01-.01-.015-.013-.025zm-3.746 4.675c-.023-.033-.053-.036-.08-.048a17.582 17.582 0 0 1 3.102-3.966c.455 2 1.273 3.95 2.2 5.77-.724 2.03-1.258 4.114-1.66 6.128-.752-2.793-1.91-5.519-3.563-7.883zm-1.498 3.104c.325-.97.73-1.884 1.193-2.748 1.368 2.934 2.511 5.82 3.225 8.992a.45.45 0 0 0 .309.341 76.288 76.288 0 0 0-.75 5.547 70.655 70.655 0 0 0-4.754-8.553c.137-1.192.378-2.385.777-3.579zm3.772 21.934c-2.52-5.496-5.02-11.45-4.633-17.453 1.527 3.153 3.065 6.308 4.676 9.417.004.008.011.01.015.018-.191 2.66-.228 5.354-.058 8.018zm1.4-.328a94.002 94.002 0 0 1-.157-5.337c.4.193 1.178.023 1.51-.049 1.049-.226 2.384-.503 3.53-.981-1.675 2.046-3.525 4.013-4.882 6.367zm5.962-7.75c-1.108.27-5.937 1.937-5.952 1.786-.01-.093-.082-.138-.16-.143.02-1.825.11-3.658.294-5.504 2.896-.455 5.846-.994 8.629-1.933-.48 2.224-1.533 4.073-2.81 5.795zm3.094-8.608c.009.667-.045 1.291-.127 1.895-.006.002-.01 0-.017.001-2.929.64-5.818 1.55-8.712 2.344a55.857 55.857 0 0 1 1.219-7.046 39.952 39.952 0 0 0 7.27-2.134c.165 1.684.344 3.351.367 4.94zm-.462-5.964c-.026.005-.052.004-.08.013-2.284.87-4.58 1.66-6.905 2.4.552-2.097 1.27-4.134 2.217-6.025.303-.08.645-.13.846-.185.475-.13.949-.264 1.423-.401.77-.224 1.596-.379 2.287-.798a.305.305 0 0 0 .1-.104c-.138 1.655-.042 3.377.112 5.1zm-.082-5.46a.25.25 0 0 0-.258-.146c-1.146.074-2.293.607-3.373.985-.165.057-.383.11-.613.17a19.809 19.809 0 0 1 3.005-4.134c.393-.066.784-.128 1.177-.192.31-.052.63-.082.933-.165-.472 1.105-.743 2.272-.87 3.482zm1.257-4.275a.38.38 0 0 0-.153-.045c-.45-.02-.885.152-1.315.274l-.114.032a17.03 17.03 0 0 1 2.892-2.12 9.404 9.404 0 0 0-1.311 1.86z"/><path d="M147.142 35.456c.121.127.226.264.343.396.057.032.1.085.134.153 4.877 5.631 5.315 14.425 1.897 20.907-4.474 8.483-14.689 11.28-23.371 13.114a.481.481 0 0 1-.155.007c-2.262 1.408-4.618 2.61-7.054 3.511-.169.063-.277-.145-.128-.246 2.498-1.704 4.984-3.353 7.411-5.057 2.764-5.328 1.27-12.046 5.34-16.897 4.578-5.454 14.047-7.15 14.684-15.384a.487.487 0 0 1 .432-.464c.104-.13.33-.184.467-.04zm2.864 7.819a22.62 22.62 0 0 0-1.888-5.036c.335 2.31.079 4.604-.558 6.825.503-.3.998-.613 1.467-.965.331-.248.642-.562.98-.824zm.574 5.302a19.603 19.603 0 0 0-.378-4.442c-.259.19-.534.361-.782.528-.661.446-1.359.82-2.084 1.154-.58 1.768-1.405 3.48-2.361 5.117 1.92-.66 3.73-1.499 5.578-2.35.01-.004.018-.002.027-.007zm-1.275 5.853c.04-.002.062.02.089.033.62-1.598.99-3.247 1.13-4.907-1.841.905-3.871 1.496-5.87 1.922-1.121 1.84-2.405 3.566-3.718 5.145 2.644-1.172 5.492-1.988 8.37-2.192zm-1.47 3.118a17.529 17.529 0 0 0 1.385-2.657c-3.14.783-6.102 1.711-9.017 3.153a.45.45 0 0 1-.46-.025 76.288 76.288 0 0 1-3.839 4.073 70.655 70.655 0 0 1 9.64-1.688 17.517 17.517 0 0 0 2.291-2.856zM128.417 68.42c5.857-1.5 12.057-3.304 16.479-7.383-3.412.797-6.832 1.588-10.262 2.292-.009.002-.015-.002-.024 0-1.946 1.823-4.016 3.547-6.193 5.091zm-.627-1.295a94.002 94.002 0 0 0 4.246-3.236c-.402-.19-.758-.901-.912-1.204-.484-.957-1.11-2.17-1.458-3.36-.537 2.589-.901 5.264-1.876 7.8zm2.27-9.51c.488 1.031 2.231 5.833 2.359 5.75.078-.052.158-.024.212.033a62.11 62.11 0 0 0 4.091-3.691c-1.468-2.537-2.906-5.169-3.928-7.923-1.425 1.774-2.2 3.755-2.734 5.831zm4.743-7.822c-.523.413-.975.848-1.392 1.292.002.006.006.008.01.013 1.346 2.679 2.456 5.498 3.66 8.246.365-.366.728-.736 1.083-1.116a55.857 55.857 0 0 0 3.627-4.265 39.952 39.952 0 0 1-2.918-6.994c-1.412.932-2.82 1.842-4.07 2.824zm4.926-3.394c.013.024.03.043.04.07a131.118 131.118 0 0 0 2.48 6.877c1.283-1.75 2.414-3.589 3.288-5.514-.13-.286-.305-.584-.39-.774a97.78 97.78 0 0 1-.583-1.359c-.31-.74-.71-1.478-.82-2.279a.305.305 0 0 1 .02-.143c-1.2 1.148-2.599 2.157-4.035 3.122zm4.295-3.373a.25.25 0 0 1 .276.11c.664.937.97 2.164 1.357 3.24.06.164.156.368.253.584a19.809 19.809 0 0 0 1.323-4.937l-.592-1.035c-.155-.274-.334-.542-.46-.829-.56 1.062-1.297 2.007-2.157 2.867zm2.531-3.666a.38.38 0 0 1 .131.09c.3.338.439.784.615 1.195l.047.109a17.03 17.03 0 0 0-.173-3.583 9.404 9.404 0 0 1-.62 2.19z"/><path d="M136.642 6.625c.031-.067.067-.127.099-.195.19-.408-.354-.741-.609-.357-.1.15-.204.295-.307.441a.572.572 0 0 0-.135.192c-.958 1.323-2.082 2.516-3.291 3.641-.213-.158-.492.1-.335.307-5.011 4.549-11.352 8.036-13.69 14.577-2.333 6.53 2.06 12.589 8.284 14.254-.847 1.94-1.752 3.87-2.738 5.789-.316.616.608 1.165.933.547a118.902 118.902 0 0 0 2.984-6.079c.104.017.207.039.31.054 6.971 1.026 13.67-3.128 15.83-9.824 2.656-8.234-3.382-16.579-7.335-23.347zm6.722 19.509c-.032.861-.157 1.7-.356 2.509a.432.432 0 0 0-.136.08c-1.522 1.361-3.123 2.537-4.965 3.428-2.033.985-5.226 2.358-7.462 1.35a105.89 105.89 0 0 0 1.675-4.733c3.936.577 8.721-.825 11.213-4.09.034.484.05.97.03 1.456zm-1.202-6.52c.526 1.415.913 2.851 1.096 4.304a.354.354 0 0 0-.27.077c-3.258 2.74-6.37 4.4-10.713 4.31a97.179 97.179 0 0 0 1.284-4.296 12.55 12.55 0 0 0 4.707-1.206c1.352-.652 3.216-1.748 3.885-3.149.006-.014.008-.028.011-.04zm-.156-.41a.274.274 0 0 0-.285.016c-1.24.783-2.166 1.956-3.48 2.697-1.416.797-2.934 1.283-4.533 1.521.34-1.286.661-2.575.943-3.87 2.269-.122 4.748-1.357 6.072-3.248a35.09 35.09 0 0 1 1.283 2.883zm-3.133-6.332c.51.904 1.013 1.82 1.492 2.746-.02.014-.042.023-.06.044-1.613 1.755-3.229 2.876-5.547 3.405.307-1.447.59-2.897.818-4.354.02.004.039.01.062.009 1.228-.1 2.628-.673 3.226-1.823.005-.009.005-.019.01-.028zM135.58 8.47a179.412 179.412 0 0 1-.677 3.555c-.24-.12-.48-.237-.71-.373-.267-.16-.524-.337-.777-.517a19.205 19.205 0 0 0 2.163-2.666zm-2.568 3.083c.538.46 1.14.887 1.761 1.143-.273 1.344-.559 2.68-.86 4.01-1.504-.598-2.79-1.3-3.869-2.509 1.03-.846 2.035-1.713 2.968-2.644zm-3.334 2.945c1.041 1.318 2.462 2.456 4.077 2.92-.251 1.084-.51 2.164-.782 3.24-2.124-1.155-3.976-2.547-5.79-4.147.83-.676 1.666-1.34 2.495-2.013zm-2.501 23.796c-.26-.067-.518-.142-.777-.227-3.915-1.287-7.327-4.585-7.384-8.924a8.934 8.934 0 0 1 .018-.61c.468.975 1.253 1.793 2.09 2.587 2.02 1.912 4.251 3.616 6.583 5.128a.32.32 0 0 0 .272.048c-.267.667-.523 1.335-.802 1.998zm1.021-2.548a.377.377 0 0 0-.12-.133c-1.822-1.234-3.597-2.52-5.273-3.949-1.408-1.199-3.078-2.437-3.641-4.25.236-1.33.75-2.598 1.43-3.784 2.319 3.323 5.327 6.04 8.783 8.173.09.055.177.063.258.049-.456 1.303-.93 2.603-1.437 3.894zm1.663-4.555c-.024-.027-.046-.053-.08-.075-3.464-2.137-6.359-4.82-8.912-7.944.776-1.252 1.733-2.402 2.737-3.442a30.977 30.977 0 0 0 7.815 6.58 125.27 125.27 0 0 1-1.56 4.881zm1.803-5.687c-2.846-1.722-5.39-3.754-7.657-6.176.14-.138.276-.282.415-.414a43.588 43.588 0 0 1 2.368-2.08c1.651 1.904 3.754 3.441 5.994 4.59a141.916 141.916 0 0 1-1.12 4.08zm6.954-13.086a.316.316 0 0 0-.265.085c-.816.74-1.571 1.357-2.672 1.557.284-1.916.498-3.838.635-5.762.71 1.344 1.506 2.72 2.301 4.121zm-10.239 26.117c.67-1.512 1.3-3.044 1.896-4.591 3.616 2.035 9.135-1.111 12.244-3.747-2.164 5.546-8.125 9.253-14.14 8.338z"/></g><path d="M143.761 4.497c2.332 1.166 3.497 3.498 3.497 6.995M145.51 1c3.497 2.332 5.246 5.829 5.246 10.492" stroke="#1D1D1B" stroke-linecap="square" stroke-linejoin="round" stroke-width="1.04"/><path d="M93.965 46.983c-2.332-1.166-3.497-3.498-3.497-6.995m1.748 10.492c-3.497-2.332-5.246-5.829-5.246-10.492" stroke="#1D1D1B" stroke-linecap="square" stroke-linejoin="round" stroke-width="1.04"/><path d="M131.717 75.462c2.427.952 4.94.258 7.538-2.082M130.29 79.1c4.073 1.039 7.842-.001 11.307-3.122" stroke="#1D1D1B" stroke-linecap="square" stroke-linejoin="round" stroke-width="1.04"/></g></svg>
